<?xml version="1.0" encoding="iso-8859-1"?>
<!-- Generator: Adobe Illustrator 19.0.0, SVG Export Plug-In . SVG Version: 6.00 Build 0)  -->
<svg version="1.1" id="Capa_1" xmlns="http://www.w3.org/2000/svg" xmlns:xlink="http://www.w3.org/1999/xlink" x="0px" y="0px"
	 viewBox="0 0 512 512" style="enable-background:new 0 0 512 512;" xml:space="preserve">
<g>
	<g>
		<path d="M384.565,228.766c-2.141-1.489-6.409-4.099-10.423-6.206c-1.735-0.911-3.404-1.731-5.025-2.431l-7.767-18.75
			c0.651-1.642,1.251-3.402,1.834-5.273c1.348-4.326,2.52-9.189,2.982-11.757c0.869-4.834-0.684-9.787-4.157-13.26l-21.098-21.098
			c-3.473-3.474-8.425-5.026-13.26-4.157c-2.568,0.462-7.431,1.634-11.757,2.982c-1.871,0.583-3.631,1.183-5.273,1.834l-18.75-7.767
			c-0.7-1.622-1.52-3.291-2.431-5.025c-2.106-4.014-4.716-8.282-6.206-10.423c-2.804-4.032-7.404-6.436-12.315-6.436h-29.837
			c-4.911,0-9.511,2.404-12.315,6.436c-1.489,2.141-4.099,6.409-6.206,10.423c-0.911,1.735-1.731,3.404-2.431,5.025l-18.75,7.767
			c-1.642-0.651-3.402-1.251-5.273-1.834c-4.326-1.348-9.189-2.52-11.757-2.982c-4.831-0.868-9.787,0.685-13.26,4.157
			l-21.098,21.098c-3.473,3.473-5.026,8.426-4.157,13.26c0.462,2.568,1.634,7.431,2.982,11.757c0.583,1.871,1.183,3.631,1.834,5.273
			l-7.767,18.75c-1.622,0.7-3.291,1.52-5.025,2.431c-4.014,2.106-8.282,4.716-10.423,6.206c-4.032,2.804-6.436,7.404-6.436,12.315
			v29.837c0,4.911,2.404,9.511,6.436,12.315c2.141,1.489,6.409,4.099,10.423,6.206c1.735,0.911,3.404,1.731,5.025,2.431l7.767,18.75
			c-0.651,1.642-1.251,3.402-1.834,5.273c-1.348,4.326-2.52,9.189-2.982,11.757c-0.869,4.834,0.684,9.787,4.157,13.26l21.098,21.098
			c3.472,3.473,8.422,5.024,13.26,4.157c2.568-0.462,7.431-1.634,11.757-2.982c1.871-0.583,3.631-1.183,5.273-1.834l18.75,7.767
			c0.7,1.621,1.52,3.29,2.431,5.025c2.106,4.014,4.716,8.282,6.206,10.423c2.804,4.032,7.404,6.436,12.315,6.436h29.837
			c4.911,0,9.511-2.404,12.315-6.436c1.489-2.141,4.099-6.409,6.206-10.423c0.911-1.735,1.731-3.404,2.431-5.025l18.75-7.767
			c1.642,0.651,3.402,1.251,5.273,1.834c4.326,1.348,9.189,2.52,11.757,2.982c4.833,0.869,9.787-0.684,13.26-4.157l21.098-21.098
			c3.473-3.473,5.026-8.426,4.157-13.26c-0.462-2.568-1.634-7.431-2.982-11.757c-0.583-1.871-1.183-3.631-1.834-5.273l7.767-18.75
			c1.622-0.7,3.291-1.52,5.025-2.431c4.014-2.106,8.282-4.716,10.423-6.206c4.032-2.804,6.436-7.404,6.436-12.315v-29.837
			C391.001,236.17,388.597,231.57,384.565,228.766z M360.999,262.446c-1.521,0.824-2.965,1.551-3.976,1.967
			c-5.561,0.382-10.605,3.859-12.829,9.227l-13.358,32.25c-2.223,5.368-1.115,11.393,2.547,15.595c0.42,1.01,0.928,2.544,1.42,4.203
			l-9.115,9.115c-1.659-0.493-3.193-1-4.203-1.42c-4.202-3.661-10.226-4.77-15.595-2.547l-32.25,13.358
			c-5.368,2.224-8.844,7.268-9.227,12.829c-0.417,1.011-1.143,2.455-1.967,3.976h-12.892c-0.824-1.521-1.551-2.965-1.967-3.976
			c-0.382-5.561-3.859-10.605-9.227-12.829l-32.25-13.358c-5.37-2.222-11.393-1.114-15.595,2.547
			c-1.009,0.42-2.544,0.928-4.203,1.42l-9.115-9.115c0.493-1.659,1-3.193,1.42-4.203c3.662-4.202,4.771-10.227,2.547-15.595
			l-13.358-32.25c-2.224-5.368-7.268-8.845-12.829-9.227c-1.011-0.417-2.455-1.143-3.976-1.967v-12.892
			c1.521-0.824,2.965-1.551,3.976-1.967c5.561-0.382,10.605-3.859,12.829-9.227l13.358-32.25c2.223-5.368,1.115-11.393-2.547-15.595
			c-0.42-1.01-0.928-2.544-1.42-4.203l9.115-9.115c1.659,0.493,3.193,1,4.203,1.42c4.202,3.661,10.227,4.771,15.595,2.547
			l32.25-13.358c5.368-2.224,8.844-7.268,9.227-12.829c0.417-1.011,1.143-2.455,1.967-3.976h12.892
			c0.824,1.521,1.551,2.965,1.967,3.976c0.382,5.561,3.859,10.605,9.227,12.829l32.25,13.358c5.369,2.223,11.393,1.114,15.595-2.547
			c1.009-0.42,2.544-0.928,4.203-1.42l9.115,9.115c-0.493,1.659-1,3.193-1.42,4.203c-3.662,4.202-4.771,10.227-2.547,15.595
			l13.358,32.25c2.224,5.368,7.268,8.845,12.829,9.227c1.011,0.417,2.455,1.143,3.976,1.967V262.446z"/>
	</g>
</g>
<g>
	<g>
		<path d="M256,0c-21.104,0-38.852,14.606-43.69,34.237c-48.832,9.585-93.379,35.21-126.444,72.995C49.84,148.4,30,201.234,30,256
			c0,8.284,6.716,15,15,15s15-6.716,15-15c0-47.497,17.204-93.314,48.443-129.012c28.059-32.065,65.632-54.042,106.881-62.762
			C222.548,79.447,238.062,90,256,90c24.813,0,45-20.187,45-45S280.813,0,256,0z M256,60c-8.271,0-15-6.729-15-15s6.729-15,15-15
			s15,6.729,15,15S264.271,60,256,60z"/>
	</g>
</g>
<g>
	<g>
		<path d="M256,196c-33.084,0-60,26.916-60,60s26.916,60,60,60s60-26.916,60-60S289.084,196,256,196z M256,286
			c-16.542,0-30-13.458-30-30s13.458-30,30-30s30,13.458,30,30S272.542,286,256,286z"/>
	</g>
</g>
<g>
	<g>
		<path d="M467,241c-8.284,0-15,6.716-15,15c0,47.497-17.204,93.314-48.443,129.012c-28.059,32.065-65.632,54.042-106.881,62.762
			C289.452,432.553,273.938,422,256,422c-24.813,0-45,20.187-45,45s20.187,45,45,45c21.104,0,38.852-14.606,43.69-34.237
			c48.832-9.585,93.379-35.21,126.444-72.995C462.16,363.6,482,310.766,482,256C482,247.716,475.284,241,467,241z M256,482
			c-8.271,0-15-6.729-15-15s6.729-15,15-15s15,6.729,15,15S264.271,482,256,482z"/>
	</g>
</g>
<g>
</g>
<g>
</g>
<g>
</g>
<g>
</g>
<g>
</g>
<g>
</g>
<g>
</g>
<g>
</g>
<g>
</g>
<g>
</g>
<g>
</g>
<g>
</g>
<g>
</g>
<g>
</g>
<g>
</g>
</svg>
