<svg id="Capa_1" enable-background="new 0 0 512 512" height="512" viewBox="0 0 512 512" width="512" xmlns="http://www.w3.org/2000/svg"><g><g><g><g><g><g><path d="m256 512c-3.223 0-6.401-1.04-9.038-3.018-3.75-2.842-5.962-7.28-5.962-11.982v-45.498c-117.1-7.749-211-106.483-211-225.502 0-124.072 101.928-226 226-226s226 101.928 226 226c0 218.789-219.672 284.799-221.884 285.429-1.347.381-2.739.571-4.116.571z" fill="#59c36a"/></g></g></g></g></g><g><g><g><path d="m260.116 511.429c2.212-.63 221.884-66.64 221.884-285.429 0-124.072-101.928-226-226-226v512c1.377 0 2.769-.19 4.116-.571z" fill="#00a66c"/></g></g></g><path d="m357.1 136.599c-3.3-3.6-6.599-7.2-9.901-10.499-24.898-23.101-56.999-35.4-91.199-35.1-11.1 0-22.5 1.199-33.9 4.2-47.699 11.398-85.8 49.799-97.2 97.798-9.901 41.4-.601 84.001 25.199 116.7 25.802 32.702 64.201 51.302 105.901 51.302 8.401 0 15-6.601 15-15 0-8.401-6.599-15-15-15-32.401 0-62.401-14.7-82.5-39.901-20.099-25.499-27.001-58.801-19.501-91.199 9.001-36.901 38.401-66.601 75.3-75.601 9-2.1 17.701-3.3 26.7-3.3 27.299 0 52.8 10.199 72.299 29.099 2.1 1.8 4.2 3.9 6.301 6.301 26.1 30 33.6 71.4 19.2 107.999-3.001 7.5-9.6 6.901-12.301 6.301-1.8-.3-10.499-2.401-10.499-12.001v-92.698c0-8.401-6.599-15-15-15s-15 6.599-15 15v.3c-12.599-9.3-28.2-15.3-45-15.3-41.4 0-75 33.6-75 75s33.6 75 75 75c20.099 0 38.101-8.101 51.599-20.7 6 9.901 15.601 17.699 28.2 20.099 20.101 3.6 38.701-6.301 45.901-25.199 18.601-47.1 9.001-100.2-24.599-138.601zm-101.1 134.401c-24.853 0-45-20.147-45-45s20.147-45 45-45 45 20.147 45 45-20.147 45-45 45z" fill="#fff5f5"/><g><path d="m381.7 275.2c-7.2 18.898-25.8 28.799-45.901 25.199-12.599-2.401-22.2-10.199-28.2-20.099-13.498 12.599-31.5 20.7-51.599 20.7v-30c24.901 0 45-20.101 45-45 0-24.901-20.099-45-45-45v-30c16.8 0 32.401 6 45 15.3v-.3c0-8.401 6.599-15 15-15s15 6.599 15 15v92.699c0 9.6 8.699 11.7 10.499 12.001 2.701.601 9.3 1.199 12.301-6.301 14.4-36.599 6.9-77.999-19.2-107.999-2.1-2.401-4.2-4.501-6.301-6.301-19.499-18.9-45-29.099-72.299-29.099v-30c34.2-.3 66.301 11.999 91.199 35.099 3.301 3.3 6.601 6.899 9.901 10.499 33.6 38.402 43.2 91.502 24.6 138.602z" fill="#e3e7ea"/></g><path d="m271 346c0 8.399-6.599 15-15 15v-30c8.401 0 15 6.599 15 15z" fill="#e3e7ea"/></g></svg>