<svg id="Capa_1" enable-background="new 0 0 512 512" height="512" viewBox="0 0 512 512" width="512" xmlns="http://www.w3.org/2000/svg"><path d="m256 0c-124.072 0-226 101.928-226 226 0 119.019 93.9 217.753 211 225.502v45.437c0 16.646 14.674 15.018 15 15.018 1.377 0 2.769-.208 4.116-.589 2.212-.63 221.884-66.579 221.884-285.368 0-124.072-101.928-226-226-226zm125.742 275.263c-7.354 18.779-25.737 28.799-45.938 25.063-12.552-2.379-22.264-10.031-28.31-20.07-13.454 12.773-31.523 20.744-51.494 20.744-41.353 0-75-33.647-75-75s33.647-75 75-75c16.948 0 32.426 5.865 45 15.383v-.383c0-8.291 6.709-15 15-15s15 6.709 15 15v92.827c0 9.565 8.643 11.689 10.386 12.012 2.71.513 9.507.938 12.437-6.533 14.326-36.563 6.943-77.944-19.277-107.959-26.016-29.795-65.361-41.777-105.278-32.095-36.855 8.95-66.372 38.672-75.176 75.747-7.705 32.446-.615 65.64 19.468 91.055 20.052 25.385 50.111 39.946 82.44 39.946 8.291 0 15 6.709 15 15s-6.709 15-15 15c-41.572 0-80.2-18.721-105.981-51.343-25.811-32.666-34.966-75.161-25.107-116.602 11.382-47.93 49.57-86.382 97.28-97.954 51.108-12.378 101.47 3.135 134.956 41.514 33.603 38.482 43.022 91.612 24.594 138.648z"/><circle cx="256" cy="226" r="45"/></svg>