<svg id="Capa_1" enable-background="new 0 0 512 512" height="512" viewBox="0 0 512 512" width="512" xmlns="http://www.w3.org/2000/svg"><g><path d="m415.599 66.401c-42.82-42.819-99.5-66.401-159.599-66.401s-116.779 23.582-159.599 66.401-66.401 99.5-66.401 159.599 23.582 116.779 66.401 159.599c39.239 39.239 90.116 62.323 144.599 65.909v45.492c0 4.715 2.217 9.156 5.986 11.989 3.761 2.828 8.642 3.732 13.18 2.42 2.269-.656 56.186-16.554 110.609-59.371 32.184-25.32 57.867-54.847 76.337-87.761 23.15-41.252 34.888-87.775 34.888-138.277 0-60.099-23.582-116.779-66.401-159.599zm-62.574 361.429c-31.126 24.653-62.624 39.808-82.025 47.752v-38.582c0-8.284-6.716-15-15-15-108.075 0-196-87.925-196-196s87.925-196 196-196 196 87.925 196 196c0 81.908-33.3 149.813-98.975 201.83z"/><path d="m222.195 95.101c-47.71 11.58-85.897 50.033-97.285 97.963-9.846 41.442-.692 83.939 25.115 116.596 25.784 32.627 64.41 51.34 105.975 51.34 8.284 0 15-6.716 15-15s-6.716-15-15-15c-32.332 0-62.379-14.558-82.438-39.94-20.082-25.412-27.177-58.603-19.465-91.061 8.807-37.066 38.313-66.798 75.173-75.744 39.92-9.688 79.272 2.306 105.271 32.085 26.216 30.027 33.6 71.4 19.27 107.972-2.924 7.464-9.663 7.056-12.428 6.534-1.734-.328-10.384-2.447-10.384-12.022l.001-92.824c0-8.284-6.716-15-15-15s-15 6.716-15 15v.041c-12.544-9.438-28.129-15.041-45-15.041-41.355 0-75 33.645-75 75s33.645 75 75 75c19.742 0 37.715-7.68 51.121-20.193 6.065 9.927 16.233 17.162 28.695 19.516 20.106 3.798 38.566-6.274 45.929-25.068 18.428-47.031 9-100.157-24.604-138.646-33.499-38.37-83.947-53.887-134.946-41.508zm33.805 175.899c-24.813 0-45-20.187-45-45s20.187-45 45-45 45 20.187 45 45-20.187 45-45 45z"/></g></svg>