<svg id="Capa_1" enable-background="new 0 0 512 512" height="512" viewBox="0 0 512 512" width="512" xmlns="http://www.w3.org/2000/svg"><path d="m256 0c-99.176 0-180 80.674-180 180 0 19.935 2.512 38.558 6.894 56.035.117.649.283 1.29.486 1.922 16.928 65.148 59.875 114.233 95.922 155.427 33.106 37.833 61.698 70.507 61.698 103.616 0 8.284 6.716 15 15 15s15-6.716 15-15c0-33.109 28.592-65.783 61.698-103.616 46.024-52.595 103.302-118.051 103.302-213.384 0-99.274-80.775-180-180-180zm139.333 124.454-49.539 49.539c-2.971-44.849-38.938-80.816-83.787-83.787l49.539-49.539c38.104 15.244 68.543 45.683 83.787 83.787zm-280.886 113.312 51.758-51.758c2.971 44.849 38.938 80.816 83.787 83.787l-73.852 73.852c-25.494-30.829-49.467-64.986-61.693-105.881zm176.897-9.323c-9.921 7.258-22.138 11.557-35.344 11.557-33.084 0-60-26.916-60-60 0-13.206 4.299-25.423 11.557-35.344l13.1-13.1c9.92-7.257 22.137-11.556 35.343-11.556 33.084 0 60 26.916 60 60 0 13.206-4.299 25.423-11.557 35.344zm-13.195-196.805-74.649 74.649-42.379-42.379c25.869-21.181 58.914-33.908 94.879-33.908 7.524 0 14.919.563 22.149 1.638zm-138.241 53.483 42.379 42.379-75.037 75.037c-.816-7.305-1.25-14.811-1.25-22.537 0-35.965 12.727-69.01 33.908-94.879zm170.214 288.507c-20.847 23.824-41.006 46.874-54.122 70.815-13.116-23.941-33.274-46.991-54.122-70.815-2.056-2.349-4.124-4.714-6.2-7.094l115.432-115.432c5.974-4.641 11.35-10.017 15.992-15.992l77.259-77.26c1.075 7.231 1.639 14.626 1.639 22.15 0 84.06-50.937 142.27-95.878 193.628z"/></svg>