<?xml version="1.0" encoding="iso-8859-1"?>
<!-- Generator: Adobe Illustrator 19.0.0, SVG Export Plug-In . SVG Version: 6.00 Build 0)  -->
<svg version="1.1" id="Capa_1" xmlns="http://www.w3.org/2000/svg" xmlns:xlink="http://www.w3.org/1999/xlink" x="0px" y="0px"
	 viewBox="0 0 512 512" style="enable-background:new 0 0 512 512;" xml:space="preserve">
<g>
	<g>
		<path d="M256,0c-21.104,0-38.852,14.606-43.69,34.237c-48.832,9.585-93.379,35.21-126.444,72.995C49.84,148.4,30,201.234,30,256
			c0,8.284,6.716,15,15,15s15-6.716,15-15c0-47.497,17.204-93.314,48.443-129.012c28.059-32.065,65.632-54.042,106.881-62.762
			C222.548,79.447,238.062,90,256,90c24.813,0,45-20.187,45-45S280.813,0,256,0z"/>
	</g>
</g>
<g>
	<g>
		<path d="M384.565,228.765c-3.627-2.523-10.528-6.512-15.448-8.637l-7.767-18.75c1.917-4.832,4.013-12.563,4.816-17.03
			c0.869-4.834-0.684-9.787-4.157-13.26l-21.098-21.098c-3.473-3.474-8.427-5.027-13.26-4.157c-4.399,0.791-12.08,2.852-17.03,4.816
			l-18.75-7.767c-2.056-4.762-6.041-11.717-8.637-15.448c-2.804-4.032-7.404-6.436-12.315-6.436h-29.837
			c-4.911,0-9.511,2.404-12.315,6.436c-2.523,3.627-6.512,10.528-8.637,15.448l-18.75,7.767c-4.832-1.917-12.563-4.013-17.03-4.816
			c-4.831-0.867-9.787,0.685-13.26,4.157l-21.098,21.098c-3.473,3.473-5.026,8.426-4.157,13.26c0.791,4.399,2.852,12.08,4.816,17.03
			l-7.767,18.75c-4.762,2.056-11.717,6.041-15.448,8.637c-4.032,2.804-6.436,7.404-6.436,12.315v29.837
			c0,4.911,2.404,9.511,6.436,12.315c3.627,2.523,10.528,6.512,15.448,8.637l7.767,18.75c-1.917,4.832-4.013,12.563-4.816,17.03
			c-0.869,4.834,0.684,9.787,4.157,13.26l21.098,21.098c3.472,3.473,8.423,5.024,13.26,4.157c4.399-0.791,12.08-2.852,17.03-4.816
			l18.75,7.767c2.056,4.762,6.041,11.717,8.637,15.448c2.804,4.032,7.404,6.436,12.315,6.436h29.837
			c4.911,0,9.511-2.404,12.315-6.436c2.523-3.627,6.512-10.528,8.637-15.448l18.75-7.767c4.832,1.917,12.563,4.013,17.03,4.816
			c4.834,0.869,9.787-0.684,13.26-4.157l21.098-21.098c3.473-3.473,5.026-8.426,4.157-13.26c-0.791-4.399-2.852-12.08-4.816-17.03
			l7.767-18.75c4.762-2.056,11.717-6.041,15.448-8.637c4.032-2.804,6.436-7.404,6.436-12.315V241.08
			C391.001,236.169,388.597,231.569,384.565,228.765z M256,316c-33.084,0-60-26.916-60-60s26.916-60,60-60s60,26.916,60,60
			S289.084,316,256,316z"/>
	</g>
</g>
<g>
	<g>
		<path d="M467,241c-8.284,0-15,6.716-15,15c0,47.497-17.204,93.314-48.443,129.012c-28.059,32.065-65.632,54.042-106.881,62.762
			C289.452,432.553,273.938,422,256,422c-24.813,0-45,20.187-45,45s20.187,45,45,45c21.104,0,38.852-14.606,43.69-34.237
			c48.832-9.585,93.379-35.21,126.444-72.995C462.16,363.6,482,310.766,482,256C482,247.716,475.284,241,467,241z"/>
	</g>
</g>
<g>
</g>
<g>
</g>
<g>
</g>
<g>
</g>
<g>
</g>
<g>
</g>
<g>
</g>
<g>
</g>
<g>
</g>
<g>
</g>
<g>
</g>
<g>
</g>
<g>
</g>
<g>
</g>
<g>
</g>
</svg>
