<?xml version="1.0" encoding="iso-8859-1"?>
<!-- Generator: Adobe Illustrator 19.0.0, SVG Export Plug-In . SVG Version: 6.00 Build 0)  -->
<svg version="1.1" id="Capa_1" xmlns="http://www.w3.org/2000/svg" xmlns:xlink="http://www.w3.org/1999/xlink" x="0px" y="0px"
	 viewBox="0 0 512 512" style="enable-background:new 0 0 512 512;" xml:space="preserve">
<path style="fill:#3AD475;" d="M285.899,479.897c-7.35,0-13.769-5.406-14.832-12.894c-1.164-8.202,4.541-15.795,12.743-16.959
	c46.269-6.567,88.795-29.663,119.747-65.033C434.796,349.314,452,303.497,452,256c0-8.284,6.716-15,15-15s15,6.716,15,15
	c0,54.766-19.84,107.6-55.867,148.768c-35.681,40.774-84.728,67.402-138.107,74.979
	C287.312,479.848,286.601,479.897,285.899,479.897z"/>
<path style="fill:#7FECA0;" d="M45,271c-8.284,0-15-6.716-15-15c0-54.766,19.84-107.6,55.867-148.768
	c35.681-40.774,84.728-67.402,138.107-74.979c8.199-1.164,15.794,4.541,16.959,12.743c1.164,8.202-4.541,15.795-12.743,16.959
	c-46.269,6.567-88.795,29.663-119.747,65.033C77.204,162.686,60,208.503,60,256C60,264.284,53.284,271,45,271z"/>
<path style="fill:#A4B0BE;" d="M384.563,228.767c-2.141-1.489-6.409-4.099-10.423-6.206c-1.735-0.911-3.404-1.731-5.025-2.431
	l-7.767-18.75c0.651-1.642,1.251-3.402,1.834-5.273c1.348-4.326,2.52-9.189,2.982-11.757c0.869-4.834-0.684-9.787-4.157-13.26
	l-21.098-21.098c-3.473-3.474-8.425-5.026-13.26-4.157c-2.568,0.462-7.431,1.634-11.757,2.982c-1.871,0.583-3.631,1.183-5.273,1.834
	l-18.75-7.767c-0.7-1.622-1.52-3.291-2.431-5.025c-2.106-4.014-4.716-8.282-6.206-10.423c-2.804-4.032-7.404-6.436-12.315-6.436
	H241.08c-4.911,0-9.511,2.404-12.315,6.436c-1.489,2.141-4.099,6.409-6.206,10.423c-0.911,1.735-1.731,3.404-2.431,5.025
	l-18.75,7.767c-1.642-0.651-3.402-1.251-5.273-1.834c-4.326-1.348-9.189-2.52-11.757-2.982c-4.831-0.868-9.787,0.685-13.26,4.157
	L149.99,171.09c-3.473,3.473-5.026,8.426-4.157,13.26c0.462,2.568,1.634,7.431,2.982,11.757c0.583,1.871,1.183,3.631,1.834,5.273
	l-7.767,18.75c-1.622,0.7-3.291,1.52-5.025,2.431c-4.014,2.106-8.282,4.716-10.423,6.206c-4.032,2.804-6.436,7.404-6.436,12.315
	v29.837c0,4.911,2.404,9.511,6.436,12.315c2.141,1.489,6.409,4.099,10.423,6.206c1.735,0.911,3.404,1.731,5.025,2.431l7.767,18.75
	c-0.651,1.642-1.251,3.402-1.834,5.273c-1.348,4.326-2.52,9.189-2.982,11.757c-0.869,4.834,0.684,9.787,4.157,13.26l21.098,21.098
	c3.472,3.473,8.422,5.024,13.26,4.157c2.568-0.462,7.431-1.634,11.757-2.982c1.871-0.583,3.631-1.183,5.273-1.834l18.75,7.767
	c0.7,1.622,1.52,3.291,2.431,5.025c2.106,4.014,4.716,8.282,6.206,10.423c2.804,4.032,7.404,6.436,12.315,6.436h29.837
	c4.911,0,9.511-2.404,12.315-6.436c1.489-2.141,4.099-6.409,6.206-10.423c0.911-1.735,1.731-3.404,2.431-5.025l18.75-7.767
	c1.642,0.651,3.402,1.251,5.273,1.834c4.326,1.348,9.189,2.52,11.757,2.982c4.833,0.869,9.787-0.684,13.26-4.157l21.098-21.098
	c3.473-3.473,5.026-8.426,4.157-13.26c-0.462-2.568-1.634-7.431-2.982-11.757c-0.583-1.871-1.183-3.631-1.834-5.273l7.767-18.75
	c1.622-0.7,3.291-1.52,5.025-2.431c4.014-2.106,8.282-4.716,10.423-6.206c4.032-2.804,6.436-7.404,6.436-12.315v-29.837
	C391,236.17,388.596,231.57,384.563,228.767z M256,316c-33.084,0-60-26.916-60-60s26.916-60,60-60s60,26.916,60,60
	S289.084,316,256,316z"/>
<g>
	<path style="fill:#FAD557;" d="M256,0c-24.813,0-45,20.187-45,45s20.187,45,45,45s45-20.187,45-45S280.813,0,256,0z"/>
	<path style="fill:#FAD557;" d="M256,422c-24.813,0-45,20.187-45,45s20.187,45,45,45s45-20.187,45-45S280.813,422,256,422z"/>
</g>
<path style="fill:#747D8B;" d="M384.563,228.767c-2.141-1.489-6.409-4.099-10.423-6.206c-1.735-0.911-3.404-1.731-5.025-2.431
	l-7.767-18.75c0.651-1.642,1.251-3.402,1.834-5.273c1.348-4.326,2.52-9.189,2.982-11.757c0.869-4.834-0.684-9.787-4.157-13.26
	l-21.098-21.098c-3.473-3.474-8.425-5.026-13.26-4.157c-2.568,0.462-7.431,1.634-11.757,2.982c-1.871,0.583-3.631,1.183-5.273,1.834
	l-18.75-7.767c-0.7-1.622-1.52-3.291-2.431-5.025c-2.106-4.014-4.716-8.282-6.206-10.423c-2.804-4.032-7.404-6.436-12.315-6.436H256
	v75c33.084,0,60,26.916,60,60s-26.916,60-60,60v75h14.918c4.911,0,9.511-2.404,12.315-6.436c1.489-2.141,4.099-6.409,6.206-10.423
	c0.911-1.735,1.731-3.404,2.431-5.025l18.75-7.767c1.642,0.651,3.402,1.251,5.273,1.834c4.326,1.348,9.189,2.52,11.757,2.982
	c4.833,0.869,9.787-0.684,13.26-4.157l21.098-21.098c3.473-3.473,5.026-8.426,4.157-13.26c-0.462-2.568-1.634-7.431-2.982-11.757
	c-0.583-1.871-1.183-3.631-1.834-5.273l7.767-18.75c1.622-0.7,3.291-1.52,5.025-2.431c4.014-2.106,8.282-4.716,10.423-6.206
	c4.032-2.804,6.436-7.404,6.436-12.315v-29.837C391,236.17,388.596,231.57,384.563,228.767z"/>
<g>
	<path style="fill:#FCB12B;" d="M256,0v90c24.813,0,45-20.187,45-45S280.813,0,256,0z"/>
	<path style="fill:#FCB12B;" d="M256,422v90c24.813,0,45-20.187,45-45S280.813,422,256,422z"/>
</g>
<g>
</g>
<g>
</g>
<g>
</g>
<g>
</g>
<g>
</g>
<g>
</g>
<g>
</g>
<g>
</g>
<g>
</g>
<g>
</g>
<g>
</g>
<g>
</g>
<g>
</g>
<g>
</g>
<g>
</g>
</svg>
